<?xml version="1.0" encoding="utf-8"?>
<!-- Generator: Adobe Illustrator 22.1.0, SVG Export Plug-In . SVG Version: 6.00 Build 0)  -->
<svg version="1.1" id="Camada_1" xmlns="http://www.w3.org/2000/svg" xmlns:xlink="http://www.w3.org/1999/xlink" x="0px" y="0px"
	 viewBox="0 0 200 50" style="enable-background:new 0 0 200 50;" xml:space="preserve">
<style type="text/css">
	.st0{fill:#0D3D70;}
	.st1{fill:#FFD804;}
	.st2{fill:#FFFFFF;}
</style>
<g>
	<path class="st0" d="M189.2,9.6L183,43.5c-0.8,3.8-4.1,6.5-8,6.5H18.9c-5.1,0-9-4.6-8.1-9.6l6.1-33.6c0-0.1,0-0.1,0-0.2
		C17.8,2.7,21.1,0,25,0h156.1C186.2,0,190.1,4.6,189.2,9.6z"/>
	<g>
		<g>
			<path class="st1" d="M145.1,37.4l3.9-22.1h-6.4l0.9-4.9h0.4c2.3,0,4.2-0.4,5.7-1.3s2.7-2.2,3.4-3.9h4.9l-5.7,32.3H145.1z"/>
			<path class="st1" d="M157,21.6c0.7-4,1.3-6.9,1.9-8.6c0.5-1.7,1.2-3.1,1.9-4c1-1.2,2.3-2.2,3.8-2.9c1.5-0.7,3.2-1,5-1
				c1.8,0,3.4,0.3,4.7,1c1.3,0.7,2.2,1.6,2.8,2.9c0.4,0.9,0.6,2.2,0.5,3.8c0,1.6-0.4,4.1-0.9,7.3c-0.6,3.5-1.1,6.1-1.6,7.9
				c-0.4,1.7-0.9,3.2-1.3,4.3c-0.7,1.7-2,3.1-3.8,4.1c-1.8,1.1-3.9,1.6-6.1,1.6c-1.9,0-3.4-0.3-4.7-1c-1.3-0.7-2.2-1.7-2.8-3
				c-0.4-0.8-0.5-2.2-0.4-4C155.9,28.3,156.3,25.5,157,21.6z M164.2,21.6l-0.4,2.4c-0.6,3.7-0.9,6-0.7,6.9c0.2,1,0.8,1.4,1.7,1.4
				c1,0,1.7-0.5,2.2-1.4c0.5-1,1.1-3.3,1.8-6.9l0.4-2.4l0.5-2.9c0.6-3.4,0.8-5.6,0.6-6.5c-0.2-0.9-0.8-1.4-1.7-1.4
				c-1,0-1.7,0.5-2.2,1.4c-0.5,1-1.1,3.3-1.8,7L164.2,21.6z"/>
			<path class="st2" d="M32.5,15.7l-0.9,5h7.3l-1,5.4h-7.3l-1,5.9H36c0,0.9,0.2,1.8,0.5,2.6c0.4,1.1,1.1,2.1,2,2.9H22.4l4.8-27h13.6
				l-0.9,5.2H32.5z"/>
			<path class="st2" d="M55.6,10.4c1.4,1.3,2.3,3.2,2.3,5.2h2.8l-3.8,21.8h6.3L67,15.7h3.4l0.9-5.2H55.6z"/>
			<path class="st2" d="M88.9,14.2c-0.2-0.9-0.7-1.7-1.3-2.3c-0.6-0.5-1.3-0.9-2.4-1.1c-1-0.2-2.7-0.3-5-0.3h-7.1l-4.8,27h6.2
				l1.9-10.8h1.3c1.1,0,1.8,0.3,2.2,0.9c0.3,0.6,0.3,1.7,0.1,3.4c0,0.2-0.1,0.6-0.2,1.2c-0.1,0.6-0.2,1.1-0.3,1.6
				c-0.1,0.7-0.2,1.4-0.2,2c0,0.6,0,1.2,0,1.8h7.4c-0.8-0.8-1-2.7-0.5-5.7c0.1-0.6,0.2-1.1,0.2-1.5l0-0.1c0.5-3.2-0.2-5.3-2-6.2
				c1.3-0.7,2.3-1.5,3-2.6c0.7-1.1,1.2-2.4,1.5-3.9C89.2,16.2,89.2,15.1,88.9,14.2z M82.4,18.3c-0.2,1.3-0.6,2.1-1.3,2.7
				c-0.6,0.5-1.6,0.8-2.9,0.8c-0.1,0-0.2,0-0.4,0c-0.2,0-0.3,0-0.4,0l1.2-6.6c0.1,0,0.2,0,0.4,0c0.2,0,0.3,0,0.4,0
				c1.3,0,2.2,0.2,2.7,0.7C82.5,16.3,82.6,17.1,82.4,18.3z"/>
			<path class="st2" d="M104.8,15.7l0.9-5.2H92.1l-4.8,27h13.6l1-5.5h-7.3l1-5.9h7.3l1-5.4h-7.3l0.9-5H104.8z"/>
			<polygon class="st2" points="118.3,32 116.1,37.4 102.8,37.4 107.6,10.4 113.9,10.4 110.1,32 			"/>
			<path class="st2" d="M137.2,37.4l-1.1-27h-7.5l-10.7,27h6.4l1.7-5.2h5l-0.1,5.2H137.2z M127.5,27.4l3.9-11.8l-0.3,11.8H127.5z"/>
			<path class="st2" d="M55.7,17.8c0,0.1,0,0.2-0.1,0.4c0,0.2-0.1,0.3-0.1,0.4h-5.4l0.1-0.3c0.2-1.1,0.2-2-0.1-2.6
				c-0.2-0.6-0.7-0.9-1.4-0.9c-0.6,0-1.1,0.2-1.5,0.6c-0.4,0.4-0.7,0.9-0.8,1.6c-0.2,1.1,0.6,2.3,2.3,3.5c0.3,0.2,0.6,0.4,0.7,0.5
				c0.1,0.1,0.3,0.2,0.6,0.4c0.7,0.5,1.3,1,1.9,1.5c0.8,0.7,1.3,1.4,1.6,1.9c0.3,0.6,0.4,1.3,0.5,2c0.1,0.8,0,1.6-0.1,2.4
				c-0.5,2.6-1.5,4.6-3.1,6c-0.5,0.5-1.1,0.9-1.8,1.2c-1.3,0.6-2.7,0.9-4.3,0.9c-2.5,0-4.3-0.6-5.4-1.9c0,0-0.1-0.1-0.1-0.1
				c-1.1-1.3-1.4-3.3-0.9-5.9c0-0.2,0.1-0.3,0.1-0.5c0-0.2,0.1-0.5,0.2-0.9h5.5L44,28.8c-0.2,1.4-0.3,2.4,0,3
				c0.2,0.6,0.7,0.9,1.5,0.9c0.6,0,1.2-0.2,1.6-0.7c0.4-0.4,0.7-1,0.9-1.8c0.2-1.2-0.5-2.4-2.1-3.6c-0.3-0.2-0.5-0.4-0.6-0.5
				L45.1,26c-0.7-0.5-1.3-1-1.8-1.4c-0.8-0.7-1.4-1.3-1.8-1.7c-0.1-0.2-0.2-0.3-0.3-0.5c-0.3-0.6-0.5-1.3-0.6-2.1
				c-0.1-0.8,0-1.6,0.1-2.6c0.4-2.1,1.2-3.8,2.6-5.1c0.1-0.1,0.2-0.2,0.3-0.2c0.2-0.2,0.5-0.4,0.7-0.5h0c1.4-0.9,3.1-1.4,5-1.4
				c2.5,0,4.3,0.6,5.4,1.9C55.8,13.6,56.1,15.4,55.7,17.8z"/>
		</g>
		<g>
			<path class="st2" d="M28.2,9l-0.1-4.2h1.2l-0.2,3l1-3h1l-0.1,3l0.9-3H33L31.4,9h-1.2l0-2.3L29.5,9H28.2z"/>
			<path class="st2" d="M33.2,9l-0.1-4.2h1.2l-0.2,3l1-3h1l-0.1,3l0.9-3H38L36.4,9h-1.2l0-2.3L34.4,9H33.2z"/>
			<path class="st2" d="M38.1,9l-0.1-4.2h1.2l-0.2,3l1-3h1l-0.1,3l0.9-3h1.1L41.4,9h-1.2l0-2.3L39.4,9H38.1z"/>
			<path class="st2" d="M42.2,9l0.2-1.3h1.3L43.5,9H42.2z"/>
		</g>
		<g>
			<path class="st2" d="M149.4,45.2l0.2-1.3h1.3l-0.2,1.3H149.4z"/>
			<path class="st2" d="M153.5,43.5h1.2c0,0,0,0.1,0,0.1c0,0,0,0.1,0,0.1c-0.1,0.5-0.3,0.9-0.6,1.2c-0.3,0.3-0.7,0.4-1.2,0.4
				c-0.6,0-1-0.2-1.1-0.5c-0.2-0.3-0.2-0.9,0-1.7c0.1-0.8,0.4-1.4,0.7-1.7c0.3-0.3,0.7-0.5,1.3-0.5c0.5,0,0.9,0.1,1.1,0.4
				c0.2,0.3,0.2,0.7,0.1,1.2l0,0.1h-1.1l0-0.1c0-0.3,0-0.4,0-0.5c0-0.1-0.1-0.2-0.2-0.2c-0.1,0-0.3,0.1-0.3,0.2
				c-0.1,0.1-0.2,0.5-0.3,1.1c-0.1,0.6-0.1,1-0.1,1.1c0,0.2,0.1,0.2,0.3,0.2c0.1,0,0.2-0.1,0.3-0.2c0.1-0.1,0.1-0.3,0.2-0.5
				c0,0,0-0.1,0-0.1C153.5,43.5,153.5,43.5,153.5,43.5z"/>
			<path class="st2" d="M155.4,43c0.1-0.8,0.4-1.4,0.7-1.7c0.3-0.3,0.7-0.5,1.3-0.5s1,0.2,1.1,0.5c0.2,0.3,0.2,0.9,0,1.7
				c-0.1,0.8-0.4,1.4-0.7,1.7c-0.3,0.3-0.7,0.5-1.3,0.5c-0.6,0-1-0.2-1.1-0.5C155.3,44.5,155.3,43.9,155.4,43z M156.6,43
				c-0.1,0.6-0.1,1-0.1,1.1c0,0.2,0.1,0.2,0.3,0.2c0.1,0,0.3-0.1,0.3-0.2c0.1-0.1,0.2-0.5,0.3-1.1c0.1-0.6,0.1-1,0.1-1.1
				c0-0.1-0.1-0.2-0.3-0.2c-0.1,0-0.3,0.1-0.3,0.2C156.8,42.1,156.7,42.4,156.6,43z"/>
			<path class="st2" d="M158.9,45.2l0.7-4.2h1.1l-0.1,0.5c0.2-0.2,0.3-0.4,0.5-0.4c0.2-0.1,0.4-0.1,0.6-0.1c0.2,0,0.4,0.1,0.5,0.2
				c0.1,0.1,0.2,0.2,0.2,0.4c0.2-0.2,0.3-0.3,0.5-0.4c0.2-0.1,0.4-0.1,0.6-0.1c0.3,0,0.5,0.1,0.6,0.3c0.1,0.2,0.1,0.6,0,1l-0.5,3
				h-1.1l0.5-2.7c0.1-0.3,0.1-0.5,0-0.6c0-0.1-0.1-0.1-0.2-0.1c-0.1,0-0.2,0.1-0.3,0.2c-0.1,0.1-0.2,0.3-0.2,0.5l-0.5,2.7h-1.1
				l0.5-2.7c0.1-0.3,0.1-0.5,0-0.6c0-0.1-0.1-0.1-0.2-0.1c-0.1,0-0.2,0.1-0.3,0.2c-0.1,0.1-0.2,0.3-0.2,0.5l-0.5,2.7H158.9z"/>
			<path class="st2" d="M164.3,45.2l0.2-1.3h1.3l-0.2,1.3H164.3z"/>
			<path class="st2" d="M167.4,39.5h1.2l-0.3,1.8c0.1-0.2,0.3-0.3,0.4-0.4c0.1-0.1,0.3-0.1,0.5-0.1c0.4,0,0.7,0.2,0.8,0.5
				c0.1,0.3,0.1,0.9-0.1,1.9c-0.1,0.4-0.2,0.8-0.2,1c-0.1,0.2-0.1,0.4-0.2,0.5c-0.1,0.2-0.3,0.3-0.4,0.4c-0.2,0.1-0.4,0.1-0.6,0.1
				c-0.2,0-0.4-0.1-0.5-0.2c-0.1-0.1-0.3-0.2-0.3-0.4l-0.1,0.5h-1.1L167.4,39.5z M168.6,41.8c-0.1,0-0.3,0.1-0.3,0.2
				c-0.1,0.1-0.2,0.4-0.2,0.7c-0.1,0.7-0.2,1.1-0.1,1.3c0,0.2,0.1,0.2,0.3,0.2c0.1,0,0.2-0.1,0.3-0.2c0.1-0.1,0.1-0.4,0.2-0.9l0-0.1
				c0.1-0.6,0.1-1,0.1-1.1C168.8,41.9,168.7,41.8,168.6,41.8z"/>
			<path class="st2" d="M170.2,45.2l0.7-4.2h1.1l-0.1,0.6c0.2-0.2,0.3-0.4,0.5-0.5c0.2-0.1,0.4-0.2,0.6-0.2l-0.2,1.3
				c-0.1,0-0.1,0-0.2,0c-0.1,0-0.1,0-0.2,0c-0.2,0-0.3,0.1-0.4,0.2c-0.1,0.1-0.2,0.4-0.3,0.8l-0.4,2H170.2z"/>
		</g>
	</g>
</g>
</svg>
